<?xml version="1.0" encoding="UTF-8"?> <svg xmlns="http://www.w3.org/2000/svg" width="102" height="32" viewBox="0 0 102 32" fill="none"><mask id="mask0_0_3" style="mask-type:luminance" maskUnits="userSpaceOnUse" x="0" y="0" width="103" height="32"><path d="M102.001 0.25H0.015625V31.6693H102.001V0.25Z" fill="white"></path></mask><g mask="url(#mask0_0_3)"><path d="M53.6819 8.93553C53.6819 6.81881 55.1498 5.04566 58.3423 5.04566C60.6712 5.04566 63.348 6.0836 65.1157 7.07589L66.8426 2.32107C64.8998 1.20144 61.7074 0.25 58.4718 0.25C52.0006 0.25 48.2901 4.48585 48.2901 9.06527C48.2901 12.6957 50.3168 15.5043 56.2292 17.6643C61.7074 19.6945 62.8299 20.9055 62.8299 22.9357C62.8299 24.9659 61.1893 26.6526 57.6107 26.6526C54.8932 26.6526 51.8735 25.6146 49.3694 23.9304L47.5129 28.7717C50.2736 30.4583 53.8546 31.6669 57.4356 31.6669C64.2091 31.6669 68.3081 28.3392 68.3081 22.9381C68.3081 18.9617 66.3677 16.2828 59.5943 13.6471C55.3225 12.0926 53.6843 10.8817 53.6843 8.93553" fill="#F2F2F2"></path></g><path d="M37.159 0.769007L27.8407 21.5134L24.6363 14.3487L19.9999 16.4654L26.8909 31.5396H28.7018L42.7667 0.769007H37.159Z" fill="#F2F2F2"></path><path d="M21.1683 6.58098L18.5683 0.769007H12.831L16.4696 8.72654L21.1683 6.58098Z" fill="#2D2D2D"></path><path d="M5.36673 0.769295H0.015625V31.1506H5.36673V0.769295Z" fill="#F2F2F2"></path><mask id="mask1_0_3" style="mask-type:luminance" maskUnits="userSpaceOnUse" x="0" y="0" width="103" height="32"><path d="M102.001 0.25H0.015625V31.6693H102.001V0.25Z" fill="white"></path></mask><g mask="url(#mask1_0_3)"><path d="M96.1787 6.7203L99.8412 3.05147C97.306 1.28794 94.2287 0.25 90.9091 0.25C82.248 0.25 75.2252 7.28252 75.2252 15.9584C75.2252 24.6344 82.2456 31.6669 90.9067 31.6669C95.236 31.6669 99.1576 29.9081 101.995 27.0658L98.4189 23.4835C96.4953 25.408 93.8401 26.5997 90.9067 26.5997C85.0399 26.5997 80.2837 21.8353 80.2837 15.9584C80.2837 10.0816 85.0399 5.31716 90.9067 5.31716C92.8255 5.31716 94.622 5.82892 96.1763 6.7203" fill="#F2F2F2"></path></g></svg> 