<?xml version="1.0" encoding="iso-8859-1"?>
<!-- Uploaded to: SVG Repo, www.svgrepo.com, Generator: SVG Repo Mixer Tools -->
<svg version="1.1" id="Layer_1" xmlns="http://www.w3.org/2000/svg" xmlns:xlink="http://www.w3.org/1999/xlink" 
	 viewBox="0 0 512 512" xml:space="preserve">
<circle style="fill:#8AD5DD;" cx="256" cy="256" r="256"/>
<rect id="SVGCleanerId_0" x="115" y="68" style="fill:#FFFFFF;" width="282" height="376"/>
<path id="SVGCleanerId_1" style="fill:#DB2B42;" d="M355.872,316.384H156.128c-6.464,0-11.752-5.288-11.752-11.752v-144.92
	c0-6.464,5.288-11.752,11.752-11.752H355.88c6.464,0,11.752,5.288,11.752,11.752v144.92
	C367.624,311.096,362.336,316.384,355.872,316.384z"/>
<g>
	<rect id="SVGCleanerId_0_1_" x="115" y="68" style="fill:#FFFFFF;" width="282" height="376"/>
</g>
<g>
	<path id="SVGCleanerId_1_1_" style="fill:#DB2B42;" d="M355.872,316.384H156.128c-6.464,0-11.752-5.288-11.752-11.752v-144.92
		c0-6.464,5.288-11.752,11.752-11.752H355.88c6.464,0,11.752,5.288,11.752,11.752v144.92
		C367.624,311.096,362.336,316.384,355.872,316.384z"/>
</g>
<g>
	<path style="fill:#E0E0E0;" d="M365.664,100.072v19.616h-135.24v-19.616H365.664 M367.624,98.112h-139.16v23.536h139.16
		L367.624,98.112L367.624,98.112z"/>
	<rect x="341.312" y="98.112" style="fill:#E0E0E0;" width="26.312" height="23.536"/>
</g>
<path style="fill:#DB2B42;" d="M207.656,121.648H173.2c-1.312,0-2.384-1.072-2.384-2.384v-18.768c0-1.312,1.072-2.384,2.384-2.384
	h34.456c1.312,0,2.384,1.072,2.384,2.384v18.768C210.04,120.576,208.96,121.648,207.656,121.648z"/>
<g>
	<path style="fill:#FFFFFF;" d="M178.008,107.264h-2.784v-1.488h7.384v1.488h-2.816v8.28h-1.784L178.008,107.264L178.008,107.264z"
		/>
	<path style="fill:#FFFFFF;" d="M189.28,113.424c0,0.84,0.032,1.544,0.056,2.12h-1.568l-0.088-1.08h-0.024
		c-0.304,0.504-1,1.232-2.264,1.232c-1.288,0-2.464-0.768-2.464-3.072v-4.144h1.784v3.84c0,1.176,0.384,1.936,1.32,1.936
		c0.712,0,1.176-0.504,1.36-0.96c0.064-0.16,0.104-0.344,0.104-0.552v-4.264h1.784V113.424z"/>
	<path style="fill:#FFFFFF;" d="M191.144,115.544c0.032-0.48,0.064-1.264,0.064-1.984v-8.312h1.784v4.2h0.032
		c0.432-0.672,1.2-1.128,2.256-1.128c1.728,0,2.96,1.432,2.944,3.584c0,2.536-1.608,3.8-3.208,3.8c-0.912,0-1.728-0.352-2.232-1.216
		h-0.032l-0.088,1.056H191.144z M192.992,112.632c0,0.152,0.016,0.288,0.04,0.424c0.192,0.712,0.808,1.256,1.584,1.256
		c1.12,0,1.8-0.904,1.8-2.32c0-1.256-0.592-2.264-1.784-2.264c-0.72,0-1.376,0.528-1.584,1.304
		c-0.024,0.128-0.056,0.288-0.056,0.464V112.632z"/>
	<path style="fill:#FFFFFF;" d="M200.952,112.512c0.04,1.28,1.04,1.832,2.176,1.832c0.824,0,1.416-0.12,1.96-0.32l0.264,1.232
		c-0.616,0.248-1.456,0.44-2.472,0.44c-2.288,0-3.64-1.408-3.64-3.576c0-1.952,1.192-3.8,3.448-3.8c2.296,0,3.048,1.888,3.048,3.44
		c0,0.336-0.032,0.592-0.056,0.752C205.68,112.512,200.952,112.512,200.952,112.512z M204.056,111.264
		c0.016-0.648-0.272-1.728-1.464-1.728c-1.104,0-1.568,1.008-1.64,1.728H204.056z"/>
</g>
<g>
	<path style="fill:#2D2D2D;" d="M147.464,115.544v-4.072l-3.088-5.696h2.032l1.176,2.504c0.336,0.728,0.584,1.28,0.848,1.944h0.024
		c0.248-0.624,0.52-1.232,0.856-1.944l1.176-2.504h2.016l-3.248,5.656v4.112H147.464z"/>
	<path style="fill:#2D2D2D;" d="M158.864,111.944c0,2.6-1.824,3.76-3.624,3.76c-2,0-3.536-1.376-3.536-3.632
		c0-2.328,1.52-3.744,3.656-3.744C157.464,108.32,158.864,109.8,158.864,111.944z M153.544,112.024c0,1.36,0.664,2.392,1.752,2.392
		c1.016,0,1.728-1,1.728-2.424c0-1.104-0.496-2.368-1.712-2.368C154.056,109.624,153.544,110.84,153.544,112.024z"/>
	<path style="fill:#2D2D2D;" d="M166.656,113.424c0,0.84,0.032,1.544,0.056,2.12h-1.568l-0.088-1.08h-0.024
		c-0.304,0.504-1,1.232-2.264,1.232c-1.288,0-2.464-0.768-2.464-3.072v-4.144h1.784v3.84c0,1.176,0.384,1.936,1.32,1.936
		c0.712,0,1.176-0.504,1.36-0.96c0.064-0.16,0.104-0.344,0.104-0.552v-4.264h1.784V113.424z"/>
	<path style="fill:#2D2D2D;" d="M353.936,113.776c-3.096,0-5.616-2.52-5.616-5.616s2.52-5.616,5.616-5.616s5.616,2.52,5.616,5.616
		C359.552,111.256,357.032,113.776,353.936,113.776z M353.936,103.816c-2.392,0-4.344,1.952-4.344,4.344s1.952,4.344,4.344,4.344
		s4.344-1.952,4.344-4.344S356.328,103.816,353.936,103.816z"/>
	
		<rect x="356.02" y="113.813" transform="matrix(-0.6044 -0.7967 0.7967 -0.6044 484.7665 469.5985)" style="fill:#2D2D2D;" width="5.896" height="1.272"/>
	<path style="fill:#2D2D2D;" d="M240.088,113.168c0.48,0.296,1.184,0.544,1.92,0.544c1.096,0,1.736-0.576,1.736-1.416
		c0-0.768-0.44-1.216-1.56-1.648c-1.352-0.48-2.192-1.184-2.192-2.352c0-1.296,1.072-2.248,2.68-2.248
		c0.848,0,1.464,0.192,1.832,0.4l-0.296,0.872c-0.272-0.152-0.824-0.392-1.576-0.392c-1.136,0-1.56,0.672-1.56,1.24
		c0,0.776,0.504,1.152,1.648,1.6c1.4,0.544,2.12,1.216,2.12,2.432c0,1.28-0.952,2.392-2.904,2.392c-0.8,0-1.68-0.24-2.12-0.528
		L240.088,113.168z"/>
	<path style="fill:#2D2D2D;" d="M246.984,111.688c0.024,1.472,0.96,2.064,2.048,2.064c0.776,0,1.24-0.128,1.648-0.304l0.184,0.776
		c-0.384,0.176-1.032,0.368-1.984,0.368c-1.832,0-2.928-1.208-2.928-3s1.056-3.216,2.792-3.216c1.952,0,2.464,1.704,2.464,2.808
		c0,0.216-0.024,0.392-0.04,0.496h-4.184V111.688z M250.16,110.92c0.016-0.688-0.288-1.76-1.504-1.76
		c-1.096,0-1.576,1.008-1.664,1.76H250.16z"/>
	<path style="fill:#2D2D2D;" d="M255.88,114.472l-0.088-0.752h-0.032c-0.336,0.472-0.968,0.888-1.824,0.888
		c-1.208,0-1.824-0.848-1.824-1.704c0-1.448,1.28-2.232,3.584-2.216v-0.128c0-0.488-0.136-1.384-1.36-1.384
		c-0.552,0-1.128,0.176-1.552,0.448l-0.248-0.72c0.488-0.312,1.208-0.528,1.96-0.528c1.824,0,2.264,1.24,2.264,2.432v2.232
		c0,0.52,0.024,1.024,0.104,1.424h-0.984V114.472z M255.72,111.44c-1.184-0.024-2.528,0.184-2.528,1.336
		c0,0.704,0.472,1.032,1.024,1.032c0.776,0,1.272-0.488,1.44-1c0.04-0.112,0.064-0.24,0.064-0.344V111.44z"/>
	<path style="fill:#2D2D2D;" d="M258.552,110.376c0-0.704-0.016-1.304-0.056-1.864h0.944l0.04,1.176h0.04
		c0.272-0.8,0.928-1.304,1.656-1.304c0.12,0,0.2,0.008,0.304,0.032v1.024c-0.112-0.024-0.224-0.032-0.368-0.032
		c-0.768,0-1.312,0.576-1.456,1.392c-0.024,0.144-0.056,0.312-0.056,0.496v3.176h-1.072v-4.096H258.552z"/>
	<path style="fill:#2D2D2D;" d="M266.72,114.256c-0.288,0.152-0.912,0.344-1.72,0.344c-1.792,0-2.968-1.216-2.968-3.04
		c0-1.84,1.264-3.168,3.208-3.168c0.64,0,1.208,0.168,1.504,0.304l-0.248,0.84c-0.264-0.152-0.664-0.28-1.264-0.28
		c-1.368,0-2.104,1.008-2.104,2.248c0,1.384,0.888,2.232,2.064,2.232c0.616,0,1.024-0.168,1.328-0.296L266.72,114.256z"/>
	<path style="fill:#2D2D2D;" d="M268.016,105.736h1.08v3.712h0.024c0.176-0.304,0.448-0.576,0.776-0.76
		c0.312-0.184,0.704-0.304,1.104-0.304c0.808,0,2.08,0.488,2.08,2.544v3.544H272v-3.424c0-0.96-0.352-1.768-1.376-1.768
		c-0.704,0-1.264,0.488-1.456,1.08c-0.064,0.152-0.08,0.304-0.08,0.52v3.6h-1.08v-8.744H268.016z"/>
</g>
<g>
	<path style="fill:#FFFFFF;" d="M171.928,216.264v21.28c0,8.056,3.568,11.472,8.376,11.472c5.336,0,8.752-3.512,8.752-11.472v-21.28
		h4.696v20.96c0,11.048-5.824,15.576-13.6,15.576c-7.368,0-12.912-4.208-12.912-15.36v-21.176H171.928z"/>
	<path style="fill:#FFFFFF;" d="M201.8,216.688c2.248-0.368,5.176-0.688,8.912-0.688c4.584,0,7.952,1.064,10.088,2.984
		c1.968,1.712,3.152,4.32,3.152,7.52c0,3.248-0.96,5.816-2.776,7.68c-2.464,2.616-6.464,3.944-10.992,3.944
		c-1.392,0-2.664-0.048-3.736-0.32v14.408h-4.64v-35.528H201.8z M206.448,234.032c1.016,0.264,2.296,0.368,3.84,0.368
		c5.6,0,9.016-2.72,9.016-7.68c0-4.752-3.368-7.04-8.488-7.04c-2.032,0-3.576,0.16-4.376,0.376v13.976H206.448z"/>
	<path style="fill:#FFFFFF;" d="M230.176,216.264h4.64v32.064h15.36v3.888h-20V216.264z"/>
	<path style="fill:#FFFFFF;" d="M284.008,233.872c0,12.376-7.52,18.936-16.696,18.936c-9.504,0-16.168-7.36-16.168-18.24
		c0-11.416,7.096-18.88,16.696-18.88C277.656,215.68,284.008,223.2,284.008,233.872z M256.112,234.456
		c0,7.68,4.16,14.56,11.472,14.56c7.36,0,11.52-6.776,11.52-14.936c0-7.152-3.736-14.608-11.472-14.608
		C259.944,219.472,256.112,226.56,256.112,234.456z"/>
	<path style="fill:#FFFFFF;" d="M295.096,240.904l-3.736,11.312h-4.8l12.208-35.952h5.6l12.272,35.952h-4.96l-3.84-11.312H295.096z
		 M306.88,237.28l-3.512-10.352c-0.808-2.344-1.336-4.48-1.864-6.552h-0.112c-0.528,2.136-1.12,4.32-1.816,6.504l-3.52,10.4
		L306.88,237.28L306.88,237.28z"/>
	<path style="fill:#FFFFFF;" d="M321.928,216.744C324.76,216.32,328.12,216,331.8,216c6.672,0,11.416,1.544,14.56,4.48
		c3.2,2.936,5.072,7.096,5.072,12.912c0,5.864-1.816,10.664-5.168,13.976c-3.368,3.36-8.912,5.168-15.896,5.168
		c-3.312,0-6.088-0.168-8.432-0.432v-35.36H321.928z M326.568,248.544c1.168,0.208,2.88,0.264,4.696,0.264
		c9.92,0,15.312-5.544,15.312-15.256c0.048-8.488-4.752-13.864-14.568-13.864c-2.4,0-4.208,0.208-5.44,0.48L326.568,248.544
		L326.568,248.544z"/>
</g>
<polygon style="fill:#2D2D2D;" points="285.152,371.816 256.08,330.52 227.008,371.816 247.032,371.816 247.032,371.816 
	247.032,416.4 266.088,416.4 266.088,371.816 "/>
</svg>